<svg fill="none" stroke-linecap="round" stroke-linejoin="round" stroke-width="1.2" version="1.1" viewBox="0 0 54 18" xmlns="http://www.w3.org/2000/svg">
    <path d="m15 7h-6a1 1 0 0 1 0 2 1 1 0 0 1 0 2h6" stroke="#ccc" class="p3"/>
    <path d="m12 3.74-1-0.4a6 6 0 1 0 0 11.32l1-0.4m3-8.76v7m6-5.5c-10-3 4 4-4 5" stroke="#0a4"/>
    <path d="m41.24 5.01q0.205 0 0.29-0.04t0.085-0.155q0-0.09-0.11-0.155-0.11-0.07-0.335-0.155-0.175-0.065-0.32-0.135-0.14-0.07-0.24-0.165-0.1-0.1-0.155-0.235t-0.055-0.325q0-0.37 0.275-0.585t0.755-0.215q0.24 0 0.46 0.045 0.22 0.04 0.35 0.09l-0.13 0.58q-0.13-0.045-0.285-0.08-0.15-0.035-0.34-0.035-0.35 0-0.35 0.195 0 0.045 0.015 0.08t0.06 0.07q0.045 0.03 0.12 0.07 0.08 0.035 0.2 0.08 0.245 0.09 0.405 0.18 0.16 0.085 0.25 0.19 0.095 0.1 0.13 0.225 0.04 0.125 0.04 0.29 0 0.39-0.295 0.59-0.29 0.2-0.825 0.2-0.35 0-0.585-0.06-0.23-0.06-0.32-0.1l0.125-0.605q0.19 0.075 0.39 0.12 0.2 0.04 0.395 0.04zm-1.455 0.445q-0.19 0.055-0.49 0.1-0.3 0.05-0.63 0.05-0.335 0-0.56-0.09-0.22-0.09-0.35-0.25-0.13-0.165-0.185-0.39t-0.055-0.495v-1.465h0.745v1.375q0 0.36 0.095 0.52t0.355 0.16q0.08 0 0.17-5e-3 0.09-0.01 0.16-0.02v-2.03h0.745zm-3.58-1.205q0-0.345-0.155-0.55-0.155-0.21-0.46-0.21-0.1 0-0.185 0.01-0.085 5e-3 -0.14 0.015v1.345q0.07 0.045 0.18 0.075 0.115 0.03 0.23 0.03 0.53 0 0.53-0.715zm0.76-0.02q0 0.305-0.075 0.555t-0.22 0.43-0.36 0.28-0.495 0.1q-0.155 0-0.29-0.03t-0.26-0.085v0.99h-0.745v-3.465q0.1-0.03 0.23-0.055 0.13-0.03 0.27-0.05 0.145-0.02 0.29-0.03 0.15-0.015 0.285-0.015 0.325 0 0.58 0.1 0.255 0.095 0.43 0.275 0.175 0.175 0.265 0.43 0.095 0.255 0.095 0.57zm-5.31-0.08q0-0.36-0.095-0.51-0.09-0.15-0.315-0.15-0.07 0-0.145 0.01-0.075 5e-3 -0.145 0.015v2.03h-0.745v-2.54q0.095-0.025 0.22-0.05 0.13-0.03 0.27-0.05 0.145-0.025 0.295-0.035 0.15-0.015 0.295-0.015 0.285 0 0.46 0.075 0.18 0.07 0.295 0.17 0.16-0.115 0.365-0.18 0.21-0.065 0.385-0.065 0.315 0 0.515 0.09 0.205 0.085 0.325 0.245t0.165 0.38 0.045 0.49v1.485h-0.745v-1.395q0-0.36-0.095-0.51-0.09-0.15-0.315-0.15-0.06 0-0.17 0.03-0.105 0.03-0.175 0.075 0.035 0.115 0.045 0.245 0.01 0.125 0.01 0.27v1.435h-0.745zm-3.205 0.875q0.11 0 0.21-5e-3t0.16-0.015v-0.565q-0.045-0.01-0.135-0.02t-0.165-0.01q-0.105 0-0.2 0.015-0.09 0.01-0.16 0.045t-0.11 0.095-0.04 0.15q0 0.175 0.115 0.245 0.12 0.065 0.325 0.065zm-0.06-2.18q0.33 0 0.55 0.075t0.35 0.215q0.135 0.14 0.19 0.34t0.055 0.445v1.55q-0.16 0.035-0.445 0.08-0.285 0.05-0.69 0.05-0.255 0-0.465-0.045-0.205-0.045-0.355-0.145-0.15-0.105-0.23-0.27t-0.08-0.405q0-0.23 0.09-0.39 0.095-0.16 0.25-0.255t0.355-0.135q0.2-0.045 0.415-0.045 0.145 0 0.255 0.015 0.115 0.01 0.185 0.03v-0.07q0-0.19-0.115-0.305t-0.4-0.115q-0.19 0-0.375 0.03-0.185 0.025-0.32 0.075l-0.095-0.6q0.065-0.02 0.16-0.04 0.1-0.025 0.215-0.04 0.115-0.02 0.24-0.03 0.13-0.015 0.26-0.015zm-2.605 2.77q-0.845 0-1.29-0.47-0.44-0.47-0.44-1.335 0-0.43 0.135-0.765 0.135-0.34 0.37-0.57 0.235-0.235 0.56-0.355t0.705-0.12q0.22 0 0.4 0.035 0.18 0.03 0.315 0.075 0.135 0.04 0.225 0.085t0.13 0.07l-0.225 0.63q-0.16-0.085-0.375-0.145-0.21-0.06-0.48-0.06-0.18 0-0.355 0.06-0.17 0.06-0.305 0.195-0.13 0.13-0.21 0.34t-0.08 0.51q0 0.24 0.05 0.45 0.055 0.205 0.17 0.355 0.12 0.15 0.31 0.24 0.19 0.085 0.46 0.085 0.17 0 0.305-0.02t0.24-0.045q0.105-0.03 0.185-0.065t0.145-0.065l0.215 0.625q-0.165 0.1-0.465 0.18t-0.695 0.08z" fill="#0a4"/>
    <path d="m49.67 8.005q0.19-0.055 0.49-0.1 0.3-0.05 0.63-0.05 0.335 0 0.555 0.09 0.225 0.085 0.355 0.245t0.185 0.38 0.055 0.49v1.485h-0.745v-1.395q0-0.36-0.095-0.51t-0.355-0.15q-0.08 0-0.17 0.01-0.09 5e-3 -0.16 0.015v2.03h-0.745zm-0.575 1.22q0 0.31-0.09 0.57-0.09 0.255-0.26 0.44-0.17 0.18-0.41 0.28-0.235 0.1-0.53 0.1-0.29 0-0.53-0.1-0.235-0.1-0.405-0.28-0.17-0.185-0.265-0.44-0.095-0.26-0.095-0.57t0.095-0.565q0.1-0.255 0.27-0.435 0.175-0.18 0.41-0.28 0.24-0.1 0.52-0.1 0.285 0 0.52 0.1 0.24 0.1 0.41 0.28t0.265 0.435 0.095 0.565zm-0.76 0q0-0.345-0.14-0.54-0.135-0.2-0.39-0.2t-0.395 0.2q-0.14 0.195-0.14 0.54t0.14 0.55q0.14 0.2 0.395 0.2t0.39-0.2q0.14-0.205 0.14-0.55zm-2.4 1.32h-0.745v-2.63h0.745zm0.07-3.39q0 0.205-0.135 0.325-0.13 0.115-0.31 0.115t-0.315-0.115q-0.13-0.12-0.13-0.325t0.13-0.32q0.135-0.12 0.315-0.12t0.31 0.12q0.135 0.115 0.135 0.32zm-3.06 0.105 0.745-0.12v0.775h0.895v0.62h-0.895v0.925q0 0.235 0.08 0.375 0.085 0.14 0.335 0.14 0.12 0 0.245-0.02 0.13-0.025 0.235-0.065l0.105 0.58q-0.135 0.055-0.3 0.095t-0.405 0.04q-0.305 0-0.505-0.08-0.2-0.085-0.32-0.23-0.12-0.15-0.17-0.36-0.045-0.21-0.045-0.465zm-1.735 2.765q0.11 0 0.21-5e-3t0.16-0.015v-0.565q-0.045-0.01-0.135-0.02t-0.165-0.01q-0.105 0-0.2 0.015-0.09 0.01-0.16 0.045t-0.11 0.095-0.04 0.15q0 0.175 0.115 0.245 0.12 0.065 0.325 0.065zm-0.06-2.18q0.33 0 0.55 0.075t0.35 0.215q0.135 0.14 0.19 0.34t0.055 0.445v1.55q-0.16 0.035-0.445 0.08-0.285 0.05-0.69 0.05-0.255 0-0.465-0.045-0.205-0.045-0.355-0.145-0.15-0.105-0.23-0.27-0.08-0.165-0.08-0.405 0-0.23 0.09-0.39 0.095-0.16 0.25-0.255t0.355-0.135q0.2-0.045 0.415-0.045 0.145 0 0.255 0.015 0.115 0.01 0.185 0.03v-0.07q0-0.19-0.115-0.305t-0.4-0.115q-0.19 0-0.375 0.03-0.185 0.025-0.32 0.075l-0.095-0.6q0.065-0.02 0.16-0.04 0.1-0.025 0.215-0.04 0.115-0.02 0.24-0.03 0.13-0.015 0.26-0.015zm-3.81 1.305q0-0.36-0.095-0.51-0.09-0.15-0.315-0.15-0.07 0-0.145 0.01-0.075 5e-3 -0.145 0.015v2.03h-0.745v-2.54q0.095-0.025 0.22-0.05 0.13-0.03 0.27-0.05 0.145-0.025 0.295-0.035 0.15-0.015 0.295-0.015 0.285 0 0.46 0.075 0.18 0.07 0.295 0.17 0.16-0.115 0.365-0.18 0.21-0.065 0.385-0.065 0.315 0 0.515 0.09 0.205 0.085 0.325 0.245t0.165 0.38 0.045 0.49v1.485h-0.745v-1.395q0-0.36-0.095-0.51-0.09-0.15-0.315-0.15-0.06 0-0.17 0.03-0.105 0.03-0.175 0.075 0.035 0.115 0.045 0.245 0.01 0.125 0.01 0.27v1.435h-0.745zm-1.97-0.575q-0.1-0.025-0.235-0.05-0.135-0.03-0.29-0.03-0.07 0-0.17 0.015-0.095 0.01-0.145 0.025v2.01h-0.745v-2.49q0.2-0.07 0.47-0.13 0.275-0.065 0.61-0.065 0.06 0 0.145 0.01 0.085 5e-3 0.17 0.02 0.085 0.01 0.17 0.03 0.085 0.015 0.145 0.04zm-2.16 0.65q0 0.31-0.09 0.57-0.09 0.255-0.26 0.44-0.17 0.18-0.41 0.28-0.235 0.1-0.53 0.1-0.29 0-0.53-0.1-0.235-0.1-0.405-0.28-0.17-0.185-0.265-0.44-0.095-0.26-0.095-0.57t0.095-0.565q0.1-0.255 0.27-0.435 0.175-0.18 0.41-0.28 0.24-0.1 0.52-0.1 0.285 0 0.52 0.1 0.24 0.1 0.41 0.28t0.265 0.435 0.095 0.565zm-0.76 0q0-0.345-0.14-0.54-0.135-0.2-0.39-0.2t-0.395 0.2q-0.14 0.195-0.14 0.54t0.14 0.55q0.14 0.2 0.395 0.2t0.39-0.2q0.14-0.205 0.14-0.55zm-2.63-2.56q0.21 0 0.385 0.045 0.175 0.04 0.27 0.08l-0.145 0.595q-0.1-0.045-0.22-0.065-0.115-0.025-0.215-0.025-0.135 0-0.23 0.04-0.09 0.035-0.145 0.1-0.05 0.065-0.075 0.155-0.02 0.09-0.02 0.195v0.13h0.92v0.62h-0.92v2.01h-0.745v-2.77q0-0.51 0.285-0.81 0.29-0.3 0.855-0.3zm-4.085 1.34q0.19-0.055 0.49-0.1 0.3-0.05 0.63-0.05 0.335 0 0.555 0.09 0.225 0.085 0.355 0.245t0.185 0.38 0.055 0.49v1.485h-0.745v-1.395q0-0.36-0.095-0.51t-0.355-0.15q-0.08 0-0.17 0.01-0.09 5e-3 -0.16 0.015v2.03h-0.745zm-1.53-0.925h0.78v3.465h-0.78z" fill="#444" class="p1"/>
    <path d="m38.63 14.15q0-0.36-0.095-0.51-0.09-0.15-0.315-0.15-0.07 0-0.145 0.01-0.075 5e-3 -0.145 0.015v2.03h-0.745v-2.54q0.095-0.025 0.22-0.05 0.13-0.03 0.27-0.05 0.145-0.025 0.295-0.035 0.15-0.015 0.295-0.015 0.285 0 0.46 0.075 0.18 0.07 0.295 0.17 0.16-0.115 0.365-0.18 0.21-0.065 0.385-0.065 0.315 0 0.515 0.09 0.205 0.085 0.325 0.245t0.165 0.38 0.045 0.49v1.485h-0.745v-1.395q0-0.36-0.095-0.51-0.09-0.15-0.315-0.15-0.06 0-0.17 0.03-0.105 0.03-0.175 0.075 0.035 0.115 0.045 0.245 0.01 0.125 0.01 0.27v1.435h-0.745zm-4.49 0.1q0-0.35 0.105-0.61 0.11-0.265 0.285-0.44t0.4-0.265q0.23-0.09 0.47-0.09 0.56 0 0.885 0.345 0.325 0.34 0.325 1.005 0 0.065-5e-3 0.145-5e-3 0.075-0.01 0.135h-1.69q0.025 0.23 0.215 0.365t0.51 0.135q0.205 0 0.4-0.035 0.2-0.04 0.325-0.095l0.1 0.605q-0.06 0.03-0.16 0.06t-0.225 0.05q-0.12 0.025-0.26 0.04t-0.28 0.015q-0.355 0-0.62-0.105-0.26-0.105-0.435-0.285-0.17-0.185-0.255-0.435-0.08-0.25-0.08-0.54zm1.75-0.285q-5e-3 -0.095-0.035-0.185-0.025-0.09-0.085-0.16-0.055-0.07-0.145-0.115-0.085-0.045-0.215-0.045-0.125 0-0.215 0.045-0.09 0.04-0.15 0.11t-0.095 0.165q-0.03 0.09-0.045 0.185zm-3.77-1.705 0.745-0.12v0.775h0.895v0.62h-0.895v0.925q0 0.235 0.08 0.375 0.085 0.14 0.335 0.14 0.12 0 0.245-0.02 0.13-0.025 0.235-0.065l0.105 0.58q-0.135 0.055-0.3 0.095t-0.405 0.04q-0.305 0-0.505-0.08-0.2-0.085-0.32-0.23-0.12-0.15-0.17-0.36-0.045-0.21-0.045-0.465zm-1.645 2.75q0.205 0 0.29-0.04t0.085-0.155q0-0.09-0.11-0.155-0.11-0.07-0.335-0.155-0.175-0.065-0.32-0.135-0.14-0.07-0.24-0.165-0.1-0.1-0.155-0.235t-0.055-0.325q0-0.37 0.275-0.585t0.755-0.215q0.24 0 0.46 0.045 0.22 0.04 0.35 0.09l-0.13 0.58q-0.13-0.045-0.285-0.08-0.15-0.035-0.34-0.035-0.35 0-0.35 0.195 0 0.045 0.015 0.08t0.06 0.07q0.045 0.03 0.12 0.07 0.08 0.035 0.2 0.08 0.245 0.09 0.405 0.18 0.16 0.085 0.25 0.19 0.095 0.1 0.13 0.225 0.04 0.125 0.04 0.29 0 0.39-0.295 0.59-0.29 0.2-0.825 0.2-0.35 0-0.585-0.06-0.23-0.06-0.32-0.1l0.125-0.605q0.19 0.075 0.39 0.12 0.2 0.04 0.395 0.04zm-1.155-2.095q-0.225 0.76-0.47 1.425t-0.535 1.29q-0.105 0.225-0.21 0.38-0.105 0.16-0.23 0.26-0.125 0.105-0.285 0.15-0.155 0.05-0.365 0.05-0.175 0-0.325-0.035-0.145-0.03-0.24-0.07l0.13-0.595q0.115 0.04 0.205 0.055t0.19 0.015q0.2 0 0.305-0.11 0.11-0.105 0.185-0.295-0.255-0.5-0.51-1.12-0.255-0.625-0.48-1.4h0.79q0.05 0.195 0.115 0.425 0.07 0.225 0.145 0.46 0.075 0.23 0.15 0.45 0.08 0.22 0.15 0.4 0.065-0.18 0.135-0.4t0.135-0.45q0.07-0.235 0.13-0.46 0.065-0.23 0.115-0.425zm-4.17 2.035q0.165 0 0.27-0.025 0.11-0.03 0.175-0.075 0.065-0.05 0.09-0.115t0.025-0.145q0-0.17-0.16-0.28-0.16-0.115-0.55-0.245-0.17-0.06-0.34-0.135-0.17-0.08-0.305-0.195-0.135-0.12-0.22-0.285-0.085-0.17-0.085-0.41t0.09-0.43q0.09-0.195 0.255-0.33t0.4-0.205q0.235-0.075 0.53-0.075 0.35 0 0.605 0.075t0.42 0.165l-0.225 0.615q-0.145-0.075-0.325-0.13-0.175-0.06-0.425-0.06-0.28 0-0.405 0.08-0.12 0.075-0.12 0.235 0 0.095 0.045 0.16t0.125 0.12q0.085 0.05 0.19 0.095 0.11 0.04 0.24 0.085 0.27 0.1 0.47 0.2 0.2 0.095 0.33 0.225 0.135 0.13 0.2 0.305t0.065 0.425q0 0.485-0.34 0.755-0.34 0.265-1.025 0.265-0.23 0-0.415-0.03-0.185-0.025-0.33-0.065-0.14-0.04-0.245-0.085-0.1-0.045-0.17-0.085l0.22-0.62q0.155 0.085 0.38 0.155 0.23 0.065 0.56 0.065z" fill="#666" class="p2"/>
    <style>
        @media (prefers-color-scheme: dark) {
            .p1 {
                fill: #ccc;
            }
            .p2 {
                fill: #999;
            }
            .p3 {
                stroke: #666;
            }
        }
    </style>
</svg>
